<?xml version="1.0" standalone="no"?>
<!DOCTYPE svg PUBLIC "-//W3C//DTD SVG 1.1//EN" "http://www.w3.org/Graphics/SVG/1.1/DTD/svg11.dtd" >
<svg xmlns="http://www.w3.org/2000/svg">
<metadata>Generated by IcoMoon</metadata>
<defs>
<font id="icomoon" horiz-adv-x="1024">
<font-face units-per-em="1024" ascent="960" descent="-64" />
<missing-glyph horiz-adv-x="1024" />
<glyph unicode="&#x20;" d="" horiz-adv-x="512" />
<glyph unicode="&#xf600;" d="M973.031 838.932v6.479h-924v-7.104c202.385-10.068 361.969-124.541 361.969-264.276 0-6.050-0.306-12.051-0.894-18h204.334c-0.64 6.194-0.972 12.445-0.972 18.75 0.001 139.184 158.321 253.3 359.563 264.151zM613.469 315.291c0 4.906 0.203 9.779 0.592 14.62h-203.758c0.458-5.251 0.697-10.541 0.697-15.87 0-139.739-159.583-254.209-361.969-264.277v-9.233h924v10.609c-201.242 10.852-359.562 124.97-359.562 264.151zM583.031 445.531c0-40.593-32.907-73.5-73.5-73.5s-73.5 32.907-73.5 73.5c0 40.593 32.907 73.5 73.5 73.5s73.5-32.907 73.5-73.5z" />
<glyph unicode="&#xf601;" d="M613.469 315.291c0 4.906 0.203 9.779 0.592 14.62h-203.758c0.458-5.251 0.697-10.541 0.697-15.87 0-139.739-159.583-254.209-361.969-264.277v-9.233h924v10.609c-201.242 10.852-359.562 124.97-359.562 264.151zM583.031 445.531c0-40.593-32.907-73.5-73.5-73.5s-73.5 32.907-73.5 73.5c0 40.593 32.907 73.5 73.5 73.5s73.5-32.907 73.5-73.5z" />
<glyph unicode="&#xf602;" d="M973.031 838.932v6.479h-924v-7.104c202.385-10.068 361.969-124.541 361.969-264.276 0-6.050-0.306-12.051-0.894-18h204.334c-0.64 6.194-0.972 12.445-0.972 18.75 0.001 139.184 158.321 253.3 359.563 264.151z" />
<glyph unicode="&#xf603;" d="M719.328 320c-64.608 0-121.44 28.736-133.12 35.072-10.432 4.16-74.688 28.928-126.208 28.928-46.688 0-108-21.312-127.68-29.536-9.888-4.128-21.152-3.040-30.080 2.912-8.896 5.952-14.24 15.936-14.24 26.624v416c0 13.024 7.904 24.736 19.936 29.632 3.456 1.408 85.312 34.368 155.392 34.368 70.656 0 146.464-33.344 149.664-34.752 1.184-0.512 2.336-1.12 3.456-1.792 0.384-0.224 46.976-27.456 100.224-27.456 52.992 0 98.208 27.040 98.656 27.328 9.952 5.952 22.24 6.208 32.352 0.544 10.048-5.696 16.32-16.32 16.32-27.872v-416c0-10.848-5.504-20.928-14.592-26.848-2.304-1.536-58.080-37.152-130.080-37.152zM460 448c68.928 0 148.928-33.056 152.32-34.464 1.216-0.512 2.4-1.088 3.552-1.76 0.448-0.256 49.856-27.776 103.456-27.776 33.984 0 63.776 11.2 80.672 19.136v347.552c-22.72-7.808-51.712-14.688-83.328-14.688-64.768 0-119.552 28.864-131.008 35.328-9.856 4.16-70.016 28.672-122.336 28.672-39.104 0-85.472-13.6-111.328-22.4v-348.48c29.92 9.152 70.592 18.88 108 18.88zM544 32h-352v800c0 17.664 14.336 32 32 32s32-14.336 32-32v-736h288c17.696 0 32-14.304 32-32s-14.304-32-32-32zM224 32h-63.008c-17.664 0-32 14.304-32 32s14.336 32 32 32h63.008c17.664 0 32-14.304 32-32s-14.336-32-32-32z" />
<glyph unicode="&#xf604;" d="M671.968 48c-12.288 0-24.576 4.672-33.952 14.048l-351.968 351.968c-18.752 18.72-18.752 49.12 0 67.872l351.968 352c18.752 18.752 49.12 18.752 67.872 0 18.752-18.72 18.752-49.12 0-67.872l-318.016-318.048 318.016-318.016c18.752-18.752 18.752-49.12 0-67.872-9.344-9.408-21.632-14.080-33.92-14.080z" />
<glyph unicode="&#xf605;" d="M887.904 661.792c-12.864 12.064-33.152 11.488-45.216-1.408l-426.752-454.368-233.12 229.696c-12.608 12.416-32.864 12.288-45.28-0.32-12.416-12.576-12.256-32.864 0.352-45.248l256.48-252.672c0.096-0.096 0.224-0.128 0.32-0.224s0.128-0.224 0.224-0.32c2.016-1.92 4.448-3.008 6.784-4.288 1.152-0.672 2.144-1.664 3.36-2.144 3.776-1.472 7.776-2.24 11.744-2.24 4.192 0 8.384 0.832 12.288 2.496 1.312 0.544 2.336 1.664 3.552 2.368 2.4 1.408 4.896 2.592 6.944 4.672 0.096 0.096 0.128 0.256 0.224 0.352 0.064 0.096 0.192 0.128 0.288 0.224l449.184 478.208c12.16 12.832 11.488 33.088-1.376 45.216z" />
<glyph unicode="&#xf606;" d="M557.312 446.752l265.28 263.904c12.544 12.48 12.608 32.704 0.128 45.248-12.512 12.576-32.704 12.608-45.248 0.128l-265.344-263.936-263.040 263.84c-12.448 12.48-32.704 12.544-45.248 0.064-12.512-12.48-12.544-32.736-0.064-45.28l262.976-263.776-265.152-263.744c-12.544-12.48-12.608-32.704-0.128-45.248 6.24-6.272 14.464-9.44 22.688-9.44 8.16 0 16.32 3.104 22.56 9.312l265.216 263.808 265.44-266.24c6.24-6.272 14.432-9.408 22.656-9.408 8.192 0 16.352 3.136 22.592 9.344 12.512 12.48 12.544 32.704 0.064 45.248l-265.376 266.176z" />
<glyph unicode="&#xf607;" d="M512 32c-8.192 0-16.384 3.136-22.624 9.376l-96 96c-12.512 12.512-12.512 32.736 0 45.248s32.736 12.512 45.248 0l73.376-73.376 73.376 73.376c5.984 6.016 14.112 9.376 22.624 9.376h224c17.664 0 32 14.336 32 32v512c0 17.632-14.336 32-32 32h-640c-17.632 0-32-14.368-32-32v-512c0-17.664 14.368-32 32-32h96c17.664 0 32-14.304 32-32s-14.336-32-32-32h-96c-52.928 0-96 43.072-96 96v512c0 52.928 43.072 96 96 96h640c52.928 0 96-43.072 96-96v-512c0-52.928-43.072-96-96-96h-210.752l-86.624-86.624c-6.24-6.24-14.432-9.376-22.624-9.376zM336 448c-26.464 0-48 21.536-48 48s21.536 48 48 48 48-21.536 48-48-21.536-48-48-48zM528 448c-26.464 0-48 21.536-48 48s21.536 48 48 48 48-21.536 48-48-21.536-48-48-48zM720 448c-26.464 0-48 21.536-48 48s21.536 48 48 48 48-21.536 48-48-21.536-48-48-48z" />
<glyph unicode="&#xf608;" d="M576 800h-128c-17.664 0-32 14.336-32 32s14.336 32 32 32h128c17.696 0 32-14.336 32-32s-14.304-32-32-32zM818.976 613.728l35.648 35.648c12.512 12.512 12.512 32.736 0 45.248s-32.736 12.512-45.248 0l-32.896-32.896c-68.96 65.664-161.984 106.272-264.48 106.272-211.744 0-384-172.256-384-384s172.256-384 384-384c211.744 0 384 172.256 384 384 0 86.176-28.896 165.568-77.024 229.728zM544 65.632v30.368c0 17.696-14.336 32-32 32s-32-14.304-32-32v-30.368c-150.944 15.040-271.328 135.424-286.368 286.368h30.368c17.664 0 32 14.304 32 32s-14.336 32-32 32h-30.368c15.040 150.944 135.424 271.328 286.368 286.368v-30.368c0-17.664 14.336-32 32-32s32 14.336 32 32v30.368c150.944-15.072 271.328-135.424 286.368-286.368h-30.368c-17.696 0-32-14.304-32-32s14.304-32 32-32h30.368c-15.040-150.944-135.424-271.328-286.368-286.368zM652 536.992l-160-128c-13.824-11.072-16.032-31.2-4.992-44.992 6.336-7.904 15.616-12 24.992-12 7.008 0 14.080 2.272 19.968 7.008l160 128c13.792 11.040 16.032 31.168 4.992 44.96-11.008 13.824-31.104 16.096-44.96 5.024z" />
<glyph unicode="&#xf609;" d="M800 0h-576c-52.928 0-96 43.072-96 96v640c0 52.928 43.072 96 96 96h448c17.696 0 32-14.336 32-32s-14.304-32-32-32h-448c-17.632 0-32-14.368-32-32v-640c0-17.664 14.368-32 32-32h576c17.664 0 32 14.336 32 32v512c0 17.664 14.304 32 32 32s32-14.336 32-32v-512c0-52.928-43.072-96-96-96zM612 512c-8.192 0-16.384 3.136-22.624 9.376-12.512 12.512-12.512 32.736 0 45.248l318.016 318.016c12.512 12.512 32.736 12.512 45.248 0s12.512-32.736 0-45.248l-318.016-318.016c-6.24-6.272-14.432-9.376-22.624-9.376zM480 512h-192c-17.664 0-32 14.336-32 32s14.336 32 32 32h192c17.664 0 32-14.336 32-32s-14.336-32-32-32zM672 320h-384c-17.664 0-32 14.304-32 32s14.336 32 32 32h384c17.696 0 32-14.304 32-32s-14.304-32-32-32z" />
<glyph unicode="&#xf60a;" d="M401.248-0.288c-226.592 0-336.704 53.056-336.704 162.24 0 76.8 114.4 127.072 230.048 144.64v6.496c-86.336 66.112-97.856 184.032-97.856 281.024 0 132.192 77.792 211.104 208.128 211.104h6.816c130.336 0 208.16-78.912 208.16-211.104 0-96.992-11.52-214.912-97.888-281.024v-6.496c115.616-17.568 230.016-67.808 230.016-144.64 0.032-74.016-60.8-162.24-350.72-162.24zM404.864 741.216c-95.648 0-144.128-49.472-144.128-147.104 0-91.264 9.856-190.848 83.040-237.408 9.216-5.888 14.816-16.064 14.816-27.008v-51.264c0-16.384-12.352-30.080-28.64-31.808-121.088-12.768-201.408-59.424-201.408-84.672 0-65.184 91.744-98.24 272.704-98.24 182.208 0 286.752 35.808 286.752 98.24 0 25.248-80.32 71.904-201.376 84.672-16.288 1.728-28.64 15.424-28.64 31.808v51.264c0 10.944 5.6 21.12 14.816 27.008 73.184 46.592 83.072 146.144 83.072 237.408 0 97.6-48.512 147.104-144.16 147.104h-6.848zM899.232 196.16c-17.696 0-32 14.304-32 32 0 24.48-91.2 83.904-196.96 95.104-16.32 1.728-28.672 15.424-28.672 31.808v66.56c0 10.944 5.6 21.12 14.816 27.008 82.784 52.672 91.712 169.792 91.712 217.696 0 110.464-74.688 133.664-137.344 133.664-17.696 0-32 14.336-32 32s14.304 32 32 32c124.192 0 201.344-75.744 201.344-197.696 0-55.712-10.752-188.672-106.528-261.376v-22.208c102.24-18.656 225.632-79.968 225.632-154.56 0-17.696-14.336-32-32-32z" />
<glyph unicode="&#xf60b;" d="M897.568 192h-97.568v93.824c0 17.696-14.304 32-32 32s-32-14.304-32-32v-93.824h-94.688c-17.696 0-32-14.304-32-32s14.304-32 32-32h94.688v-98.432c0-17.696 14.304-32 32-32s32 14.304 32 32v98.432h97.568c17.696 0 32 14.304 32 32s-14.304 32-32 32zM468-3.424c-86.976 0-370.72 11.968-370.72 166.176 0 85.472 127.424 133.664 256.032 152.032v37.664c-84.672 81.216-93.792 189.088-95.488 284.544 0 158.496 86.144 256.608 224.832 256.608 147.744 0 222.656-86.144 222.656-256.032 0-79.36-31.648-146.432-64.096-208.288l-31.904-66.016v-77.696c0-17.696-14.304-32-32-32s-32 14.304-32 32v84.992c0 4.8 1.088 9.6 3.2 13.952l35.552 73.536c30.4 57.984 57.248 114.624 57.248 179.488 0 134.592-47.424 192.032-158.656 192.032-145.184 0-160.832-134.304-160.832-192.032 1.952-108.672 16.736-188.16 84.448-246.784 7.008-6.048 11.040-14.912 11.040-24.192v-80c0-16.32-12.288-30.016-28.512-31.808-136.096-14.88-227.52-59.584-227.52-92 0-74.976 183.424-102.176 306.72-102.176 62.368 0 167.84 14.56 168.896 14.688 17.472 2.56 33.664-9.792 36.096-27.296s-9.792-33.664-27.296-36.096c-4.48-0.608-110.88-15.296-177.696-15.296z" />
<glyph unicode="&#xf60c;" d="M518.944 306.112v6.624c89.728 64.224 89.44 175.328 89.216 265.536l-0.032 13.6c0 130.656-78.752 208.672-210.72 208.672h-6.656c-126.56 0-196.256-74.112-196.256-208.672 0-67.872 0-205.664 103.584-279.168v-5.376c-120.096-16.96-232.8-66.272-232.8-144.672 0-109.056 107.68-162.080 329.152-162.080 283.392 0 342.848 88.16 342.848 162.080 0 84.096-138.816 128.192-218.336 143.456zM929.632 192.224c-17.504 0-31.776 14.24-32 31.776-0.32 23.456-101.632 88.48-197.376 99.712-16.096 1.92-28.256 15.584-28.256 31.776v66.272c0 9.728 4.448 18.912 12.032 24.992 54.080 43.232 94.912 137.28 94.912 218.784 0 109.984-74.304 133.056-136.64 133.056-17.696 0-32 14.336-32 32s14.304 32 32 32c123.744 0 200.64-75.52 200.64-197.056 0-94.72-44.288-200.384-106.944-258.4v-24.64c91.904-19.616 225.632-83.872 225.632-158.528 0-17.6-14.208-31.68-31.808-31.776-0.064 0.032-0.128 0.032-0.192 0.032z" />
<glyph unicode="&#xf60d;" d="M979.84 555.456l-405.568 320.544c-34.912 27.648-89.696 27.616-124.576 0l-405.536-320.544c-13.856-10.976-16.224-31.104-5.28-44.96s30.624-16.224 44.48-5.28l12.64 10.368v-387.584c0-54.944 57.888-96 108.8-96h640c50.304 0 83.2 38.592 83.2 96v386.080l11.68-8.864c5.888-4.64 13.12-6.88 20.064-6.88 9.44 0 18.912 4.16 25.216 12.16 10.976 13.856 8.768 33.984-5.12 44.96zM480 96v177.408c0 8.832 16 13.248 32 13.248s32-4.416 32-13.248v-177.408h-64zM864 128c0-21.216-5.856-32-19.2-32h-236.16c0 0.48-0.64 0.864-0.64 1.344v176.064c0 37.216-30.016 77.28-96 77.28s-96-40.064-96-77.28v-176.064c0-0.48 0.864-0.864 0.864-1.344h-212.064c-20.064 0-44.8 17.344-44.8 32v438.176l328.928 259.616c11.808 9.344 33.12 9.344 44.96 0l330.112-261.12v-436.672z" />
<glyph unicode="&#xf60e;" d="M512 32c-28.928 0-57.92 12.672-86.624 41.376l-319.104 322.624c-38.208 47.648-74.272 92.672-74.272 180 0 141.152 114.848 256 256 256 53.088 0 104-16.096 147.296-46.592 14.432-10.176 17.92-30.144 7.712-44.608-10.176-14.432-30.080-17.92-44.608-7.712-32.384 22.848-70.592 34.912-110.4 34.912-105.888 0-192-86.112-192-192 0-61.408 20.288-90.112 59.168-138.688l315.584-318.816c15.968-15.968 28.864-22.304 41.248-22.496 12.704-0.192 24.928 6.176 41.376 22.624l316.672 319.904c26.016 28.192 57.952 75.776 57.952 137.472 0 105.888-86.112 192-192 192-48.064 0-94.080-17.856-129.536-50.272l-134.080-134.112c-12.512-12.512-32.736-12.512-45.248 0s-12.512 32.736 0 45.248l135.104 135.136c48.32 44.192 109.664 68 173.76 68 141.152 0 256-114.848 256-256 0-82.368-41.152-144.288-75.68-181.696l-317.568-320.8c-28.8-28.832-57.792-41.504-86.752-41.504z" />
<glyph unicode="&#xf60f;" d="M736 832c-65.952 0-128.576-25.024-176.384-70.464-4.576-4.32-28.672-28.736-47.328-47.68l-47.328 47.104c-47.84 45.824-110.688 71.040-176.96 71.040-141.152 0-256-114.848-256-256 0-82.432 41.184-144.288 76.48-182.496l316.896-320.128c25.088-25.056 52.928-41.376 86.624-41.376s61.568 16.32 86.752 41.504l318.944 322.464c38.208 47.648 74.304 92.64 74.304 180.032 0 141.152-114.848 256-256 256z" />
<glyph unicode="&#xf610;" d="M512 352c-105.888 0-192 86.112-192 192s86.112 192 192 192 192-86.112 192-192-86.112-192-192-192zM512 672c-70.592 0-128-57.408-128-128s57.408-128 128-128c70.592 0 128 57.408 128 128s-57.408 128-128 128zM512 0c-7.936 0-15.904 2.944-22.080 8.832-12.768 12.224-13.248 32.48-1.056 45.248 86.528 90.72 311.136 355.584 311.136 489.92 0 158.784-129.184 288-288 288-158.784 0-288-129.216-288-288 0-75.616 72.544-206.080 204.256-367.424 11.2-13.728 9.152-33.888-4.544-45.024-13.696-11.168-33.888-9.152-45.024 4.544-145.12 177.728-218.688 314.976-218.688 407.904 0 194.080 157.92 352 352 352s352-157.92 352-352c0-187.36-315.424-520.032-328.832-534.080-6.304-6.592-14.72-9.92-23.168-9.92z" />
<glyph unicode="&#xf611;" d="M512 192c-17.664 0-32 14.304-32 32v96c0 17.696 14.336 32 32 32s32-14.304 32-32v-96c0-17.696-14.336-32-32-32zM832 0h-640c-52.928 0-96 43.072-96 96v352c0 52.928 43.072 96 96 96h640c52.928 0 96-43.072 96-96v-352c0-52.928-43.072-96-96-96zM192 480c-17.632 0-32-14.368-32-32v-352c0-17.664 14.368-32 32-32h640c17.664 0 32 14.336 32 32v352c0 17.632-14.336 32-32 32h-640zM736 480c-17.696 0-32 14.336-32 32v129.984c0 108.768-102.24 190.016-193.664 190.016-93.568 0-190.336-70.912-190.336-189.568v-130.432c0-17.664-14.336-32-32-32s-32 14.336-32 32v130.432c0 158.72 129.312 253.568 254.336 253.568 121.888 0 257.664-104.32 257.664-254.016v-129.984c0-17.664-14.304-32-32-32z" />
<glyph unicode="&#xf612;" d="M640 544h-256c-17.664 0-32 14.336-32 32s14.336 32 32 32h256c17.696 0 32-14.336 32-32s-14.304-32-32-32zM579.264 416h-195.264c-17.664 0-32 14.336-32 32s14.336 32 32 32h195.264c17.696 0 32-14.336 32-32s-14.336-32-32-32zM962.24 512c0 211.744-200.96 384-448 384s-448-172.256-448-384c0-116.512 63.040-226.048 172.928-300.672 14.624-9.984 34.528-6.144 44.448 8.512 9.92 14.624 6.112 34.528-8.512 44.448-92.064 62.496-144.864 152.768-144.864 247.712 0 176.448 172.256 320 384 320s384-143.552 384-320c0-176.448-172.256-320-384-320-1.984 0-3.68-0.768-5.568-1.12-15.136 2.72-30.464-5.216-35.776-20.192-6.144-17.376-46.368-46.656-94.144-73.792 17.44 58.208 9.088 70.688 3.488 78.976-6.72 9.984-17.92 15.936-29.92 15.936-17.664 0-32-14.304-32-32 0-5.824 1.536-11.264 4.256-15.968-3.232-18.208-17.216-60.832-33.056-99.84-4.928-12.096-1.984-25.984 7.392-35.072 6.080-5.888 14.112-8.992 22.272-8.992 4.384 0 8.8 0.896 12.992 2.752 36.48 16.256 147.648 69.12 187.616 125.632 243.552 3.52 440.448 174.112 440.448 383.68z" />
<glyph unicode="&#xf613;" d="M736-32h-448c-52.928 0-96 43.072-96 96v768c0 52.928 43.072 96 96 96h448c52.928 0 96-43.072 96-96v-768c0-52.928-43.072-96-96-96zM288 864c-17.632 0-32-14.368-32-32v-768c0-17.664 14.368-32 32-32h448c17.664 0 32 14.336 32 32v768c0 17.632-14.336 32-32 32h-448zM512 63.584c-35.296 0-64 28.704-64 64s28.704 64 64 64c35.296 0 64-28.704 64-64s-28.704-64-64-64zM512.032 127.584c0 0-0.064 0-0.064-0.032l0.032-31.968 0.032 32zM704 224h-384c-17.664 0-32 14.304-32 32v544c0 17.664 14.336 32 32 32h384c17.696 0 32-14.336 32-32v-544c0-17.696-14.304-32-32-32zM352 288h320v480h-320v-480z" />
<glyph unicode="&#xf614;" d="M224 352c-52.928 0-96 43.072-96 96s43.072 96 96 96c52.928 0 96-43.072 96-96s-43.072-96-96-96zM512 352c-52.928 0-96 43.072-96 96s43.072 96 96 96c52.928 0 96-43.072 96-96s-43.072-96-96-96zM800 352c-52.928 0-96 43.072-96 96s43.072 96 96 96c52.928 0 96-43.072 96-96s-43.072-96-96-96z" />
<glyph unicode="&#xf615;" d="M512 896c-247.040 0-448-200.96-448-448s200.96-448 448-448 448 200.96 448 448-200.96 448-448 448zM289.216 135.84c3.168 0.128 6.336 0.224 9.472 1.344 62.784 22.24 124.8 38.24 158.016 40.8 16.672 1.28 29.536 15.2 29.536 31.904v59.072c0 9.408-4.128 18.336-11.296 24.416-53.088 45.088-72 144.768-72 223.072 0 90.016 42.144 135.648 125.28 135.648 79.2 0 117.696-44.352 117.696-135.648 0-88.928-39.296-189.856-89.44-229.792-7.616-6.048-12.064-15.264-12.064-25.024v-55.008c0-16.224 12.128-29.824 28.224-31.776 37.184-4.448 101.088-25.952 148.48-44.64 1.568-0.608 3.2-0.544 4.832-0.896-61.184-41.216-134.816-65.312-213.952-65.312-83.104 0-159.904 26.816-222.784 71.84zM764.608 159.488c0.224 12.96-7.296 25.248-20.064 30.304-20.8 8.192-84.16 32.32-136.128 43.68v13.6c66.688 62.816 101.504 180.48 101.504 269.376 0 126.88-66.208 199.648-181.696 199.648-118.528 0-189.28-74.624-189.28-199.648 0-42.944 6.24-183.936 83.296-261.408v-17.152c-44.704-7.904-101.44-25.024-144.928-40.416-15.008-5.312-22.976-20.704-20.16-35.936-79.008 70.4-129.152 172.544-129.152 286.464 0 211.744 172.256 384 384 384s384-172.256 384-384c0-115.008-51.072-218.080-131.392-288.512z" />
<glyph unicode="&#xf616;" d="M526.432 35.936c-20.96 0-44.16 12.576-68.96 37.344l-182.72 182.72h-82.752c-52.928 0-96 43.072-96 96v192c0 52.928 43.072 96 96 96h82.752l182.624 182.624c24.576 24.576 47.744 37.024 68.864 37.024 22.944 0 49.76-15.648 49.76-59.648v-704c0-44.352-26.72-60.064-49.568-60.064zM192 576c-17.632 0-32-14.368-32-32v-192c0-17.664 14.368-32 32-32h96c8.48 0 16.64-3.36 22.624-9.376l192.064-192.096c3.392-3.36 6.496-6.208 9.312-8.576v676.032c-2.784-2.336-5.952-5.184-9.376-8.608l-192-192c-5.984-6.016-14.144-9.376-22.624-9.376h-96zM687.584 229.632c-6.464 0-12.992 1.952-18.656 6.016-14.336 10.304-17.632 30.304-7.328 44.672l12.672 17.344c33.12 44.896 61.728 83.712 61.728 150.336 0 69.024-25.344 102.528-57.44 144.928-5.664 7.456-11.328 15.008-16.928 22.784-10.304 14.336-7.040 34.336 7.328 44.672 14.368 10.368 34.336 7.040 44.672-7.328 5.248-7.328 10.656-14.464 15.968-21.504 34.624-45.76 70.4-93.056 70.4-183.552 0-87.648-39.392-141.12-74.144-188.32l-12.224-16.736c-6.272-8.704-16.064-13.312-26.048-13.312zM796.448 120.992c-7.488 0-15.040 2.624-21.088 7.936-13.28 11.648-14.624 31.872-2.976 45.152 64.224 73.248 123.616 157.056 123.616 273.92s-59.392 200.704-123.616 273.888c-11.648 13.312-10.304 33.504 2.976 45.184 13.216 11.648 33.44 10.336 45.152-2.944 68.96-78.688 139.488-177.728 139.488-316.128s-70.528-237.472-139.488-316.096c-6.368-7.232-15.2-10.912-24.064-10.912z" />
<glyph unicode="&#xf617;" d="M526.432 35.936c-20.96 0-44.16 12.576-68.96 37.344l-182.72 182.72h-82.752c-52.928 0-96 43.072-96 96v192c0 52.928 43.072 96 96 96h82.752l182.624 182.624c24.576 24.576 47.744 37.024 68.864 37.024 22.944 0 49.76-15.648 49.76-59.648v-704c0-44.352-26.72-60.064-49.568-60.064zM687.584 229.632c-6.464 0-12.992 1.952-18.656 6.016-14.336 10.304-17.632 30.304-7.328 44.672l12.672 17.344c33.12 44.896 61.728 83.712 61.728 150.336 0 69.024-25.344 102.528-57.44 144.928-5.664 7.456-11.328 15.008-16.928 22.784-10.304 14.336-7.040 34.336 7.328 44.672 14.368 10.368 34.336 7.040 44.672-7.328 5.248-7.328 10.656-14.464 15.968-21.504 34.624-45.76 70.4-93.056 70.4-183.552 0-87.648-39.392-141.12-74.144-188.32l-12.224-16.736c-6.272-8.704-16.064-13.312-26.048-13.312zM796.448 120.992c-7.488 0-15.040 2.624-21.088 7.936-13.28 11.648-14.624 31.872-2.976 45.152 64.224 73.248 123.616 157.056 123.616 273.92s-59.392 200.704-123.616 273.888c-11.648 13.312-10.304 33.504 2.976 45.184 13.216 11.648 33.44 10.336 45.152-2.944 68.96-78.688 139.488-177.728 139.488-316.128s-70.528-237.472-139.488-316.096c-6.368-7.232-15.2-10.912-24.064-10.912z" />
<glyph unicode="&#xf618;" d="M512 896c-247.040 0-448-200.96-448-448s200.96-448 448-448 448 200.96 448 448-200.96 448-448 448zM512 64c-211.744 0-384 172.256-384 384s172.256 384 384 384c211.744 0 384-172.256 384-384s-172.256-384-384-384zM641.088 448c17.696 0 32 14.336 32 32s-14.304 32-32 32h-97.088v15.136l118.592 123.872c12.192 12.8 12 33.056-0.8 45.248-12.736 12.16-32.832 11.712-45.088-1.12l-101.6-106.784-107.584 107.36c-12.544 12.512-32.768 12.448-45.248-0.064s-13.088-32.768-0.576-45.248l118.304-118.624v-19.776h-94.784c-17.664 0-32-14.336-32-32s14.336-32 32-32h94.784v-64h-94.784c-17.664 0-32-14.304-32-32s14.336-32 32-32h94.784v-95.136c0-17.696 14.336-32 32-32s32 14.304 32 32v95.136h97.088c17.696 0 32 14.304 32 32s-14.304 32-32 32h-97.088v64h97.088z" />
<glyph unicode="&#xf619;" d="M512 896c-247.040 0-448-200.96-448-448s200.96-448 448-448 448 200.96 448 448-200.96 448-448 448zM640.768 384c17.696 0 32-14.304 32-32s-14.304-32-32-32h-96.768v-95.136c0-17.696-14.304-32-32-32s-32 14.304-32 32v95.136h-95.104c-17.696 0-32 14.304-32 32s14.304 32 32 32h95.104v64h-95.104c-17.696 0-32 14.304-32 32s14.304 32 32 32h95.104v19.776l-118.432 118.624c-12.544 12.48-12.064 32.736 0.416 45.248 12.512 12.576 32.704 12.512 45.216 0.064l107.584-107.36 101.632 106.784c12.288 12.832 32.416 13.216 45.152 1.12 12.8-12.192 13.056-32.48 0.864-45.248l-118.432-123.872v-15.136h96.768c17.696 0 32-14.304 32-32s-14.304-32-32-32h-96.768v-64h96.768z" />
<glyph unicode="&#xf61a;" d="M953.504 51.744l-152.608 163.296c61.856 74.496 95.872 167.36 95.872 265.12 0 229.344-186.624 415.968-416.032 415.968-229.344 0-415.968-186.592-415.968-415.968s186.624-415.968 416-415.968c60.096 0.032 118.048 12.576 172.224 37.248 16.096 7.328 23.2 26.304 15.872 42.368-7.328 16.128-26.4 23.264-42.368 15.872-45.856-20.864-94.88-31.456-145.76-31.488-194.080 0-351.968 157.888-351.968 351.968 0 194.048 157.888 351.968 351.968 351.968 194.112 0 352.032-157.888 352.032-351.968 0-91.36-34.848-177.92-98.080-243.744-12.256-12.736-11.84-32.992 0.864-45.248 0.96-0.928 2.208-1.28 3.296-2.080 0.864-1.28 1.312-2.752 2.4-3.904l165.504-177.088c6.272-6.752 14.816-10.144 23.36-10.144 7.84 0 15.68 2.848 21.856 8.64 12.896 12 13.6 32.256 1.536 45.152z" />
<glyph unicode="&#xf61b;" d="M512 352c-52.928 0-96 43.072-96 96s43.072 96 96 96 96-43.072 96-96-43.072-96-96-96zM512 480c-17.632 0-32-14.368-32-32s14.368-32 32-32 32 14.368 32 32-14.368 32-32 32zM631.040 0c-10.016 0-19.712 4.736-25.856 13.12l-73.408 100.48c-13.664-0.832-25.92-0.864-39.584 0l-73.376-100.48c-7.904-10.816-21.728-15.616-34.656-11.872-34.592 9.888-67.488 23.456-97.76 40.32-11.712 6.528-18.112 19.648-16.032 32.896l19.2 123.264c-9.824 8.704-19.136 18.016-27.84 27.808l-123.264-19.2c-13.056-1.984-26.336 4.352-32.896 16.064-16.896 30.368-30.464 63.296-40.32 97.824-3.68 12.864 1.056 26.72 11.904 34.624l100.448 73.376c-0.448 6.816-0.672 13.376-0.672 19.776s0.224 12.96 0.672 19.776l-100.48 73.408c-10.816 7.936-15.584 21.728-11.904 34.656 9.856 34.496 23.424 67.392 40.32 97.792 6.56 11.712 19.712 18.048 32.896 16.064l123.264-19.2c8.736 9.824 18.016 19.104 27.84 27.84l-19.2 123.264c-2.048 13.216 4.384 26.336 16.096 32.864 30.4 16.896 63.296 30.464 97.76 40.32 12.928 3.648 26.72-1.056 34.656-11.904l73.376-100.448c13.568 0.896 25.824 0.896 39.584 0l73.408 100.48c7.904 10.848 21.664 15.52 34.656 11.904 34.464-9.856 67.328-23.424 97.76-40.32 11.712-6.528 18.112-19.648 16.064-32.896l-19.264-123.36c9.824-8.736 19.104-18.016 27.808-27.776l123.328 19.2c13.152 2.016 26.336-4.384 32.864-16.032 16.896-30.4 30.496-63.296 40.352-97.824 3.648-12.896-1.088-26.688-11.904-34.624l-100.48-73.408c0.448-6.816 0.672-13.376 0.672-19.776s-0.224-12.96-0.672-19.776l100.48-73.376c10.816-7.904 15.552-21.728 11.904-34.624-9.856-34.496-23.424-67.424-40.352-97.824-6.528-11.712-19.488-18.048-32.896-16.064l-123.296 19.2c-8.672-9.76-17.984-19.072-27.808-27.776l19.232-123.296c2.048-13.248-4.352-26.368-16.064-32.896-30.24-16.832-63.136-30.4-97.76-40.32-2.912-0.832-5.856-1.248-8.8-1.248zM337.152 87.328c13.984-6.752 28.544-12.704 43.552-17.92l70.528 96.576c6.784 9.28 17.984 14.272 29.472 12.896 20.576-2.336 42.080-2.336 62.624 0 11.84 1.376 22.72-3.616 29.472-12.896l70.528-96.576c15.040 5.184 29.6 11.168 43.552 17.92l-18.432 118.368c-1.76 11.36 2.72 22.848 11.712 30.016 16.384 12.992 31.264 27.872 44.16 44.128 7.168 8.992 18.4 13.504 30.016 11.744l118.368-18.432c6.752 14.016 12.736 28.576 17.92 43.552l-96.576 70.528c-9.28 6.784-14.208 18.016-12.896 29.472 1.152 10.272 1.952 20.704 1.952 31.296s-0.768 21.024-1.952 31.296c-1.312 11.424 3.616 22.688 12.896 29.472l96.576 70.56c-5.152 15.008-11.168 29.568-17.92 43.552l-118.4-18.432c-11.328-1.696-22.816 2.688-29.984 11.744-12.896 16.256-27.776 31.104-44.16 44.128-8.992 7.168-13.472 18.592-11.712 29.984l18.432 118.4c-14.016 6.752-28.576 12.736-43.52 17.92l-70.56-96.576c-6.784-9.28-17.696-14.368-29.472-12.928-20.544 2.368-42.016 2.4-62.56 0-11.52-1.344-22.752 3.616-29.536 12.896l-70.528 96.576c-14.976-5.152-29.536-11.136-43.552-17.92l18.432-118.368c1.76-11.392-2.72-22.848-11.744-30.016-16.32-12.928-31.2-27.808-44.128-44.128-7.168-9.024-18.56-13.472-30.016-11.744l-118.368 18.432c-6.752-14.016-12.736-28.576-17.92-43.552l96.576-70.56c9.312-6.784 14.24-18.080 12.896-29.536-1.184-10.208-1.952-20.608-1.952-31.2s0.768-20.992 1.952-31.264c1.344-11.456-3.616-22.688-12.896-29.504l-96.576-70.528c5.184-15.008 11.168-29.568 17.92-43.552l118.368 18.432c11.392 1.76 22.848-2.752 30.016-11.744 12.896-16.32 27.744-31.168 44.128-44.128 9.024-7.168 13.504-18.624 11.744-30.016l-18.432-118.368z" />
<glyph unicode="&#xf61c;" d="M704 544c-52.928 0-96 43.072-96 96s43.072 96 96 96 96-43.072 96-96-43.072-96-96-96zM704 672c-17.664 0-32-14.368-32-32s14.336-32 32-32 32 14.368 32 32-14.336 32-32 32zM467.008 32c-27.040 0-57.76 6.752-83.008 32l-256 256c-46.752 46.752-37.76 122.24 0 160l288 288c12.512 12.512 36.16 14.496 48.672 1.984 12.736-12.736 17.664-31.68-4.32-53.664l-279.584-279.584c-28.992-28.992-25.76-47.744 1.248-74.752l248.992-248.992c22.24-22.24 41.984-24 67.744 1.76l333.248 333.248c25.504 25.504 32 46.656 32 96v128c0 110.048-17.952 128-128 128h-192c-17.664 0-32 14.336-32 32s14.336 32 32 32h192c145.344 0 192-46.656 192-192v-128c0-73.728-8.256-104.256-64-160l-320-320c-17.248-17.248-44.512-32-76.992-32z" />
<glyph unicode="&#xf61d;" d="M223.968 319.52c0 35.328 28.672 63.968 64 63.968 35.36 0 64-28.64 64-63.968s-28.64-64-64-64c-35.328 0-64 28.672-64 64zM672.608 319.52c0 35.328 28.672 63.968 64 63.968s64-28.64 64-63.968-28.672-64-64-64-64 28.672-64 64zM704.992 448h-384c-17.664 0-32 14.336-32 32s14.336 32 32 32h384c17.696 0 32-14.336 32-32s-14.304-32-32-32zM896 507.808v5.472c0 2.112-0.224 4.224-0.64 6.304l-32 159.36c-0.544 2.624-1.376 5.152-2.528 7.552-21.568 44.928-77.568 81.504-124.832 81.504h-35.2c-0.224 2.112 0 4.192-0.672 6.304l-19.296 61.376c-7.552 34.048-42.656 60.32-81.632 60.32h-174.016c-38.88 0-73.984-26.24-80.96-57.664l-19.968-63.744c-0.672-2.080-0.448-4.48-0.672-6.592h-35.584c-45.472 0-104.288-26.304-125.984-84.096-0.576-1.632-1.056-3.264-1.376-4.96l-32-159.68c-0.48-2.304-0.672-4.608-0.64-6.944l0.096-4.768c-37.344-13.28-64.096-48.736-64.096-90.24v-195.232c0-52.768 42.176-94.080 96-94.080h32v-1.984c0.064-70.528 57.472-127.904 128-127.904s127.936 57.376 128 127.936v1.952h128v-1.984c0.032-70.528 57.472-127.904 128-127.904s127.968 57.376 128 127.936v1.952h32c53.856 0 96 41.312 96 94.048v195.232c0 41.728-26.752 77.344-64 90.528zM405.952 821.696c0.672 2.976 8.64 10.304 19.232 10.304h174.016c10.624 0 18.56-7.296 19.904-12.896l15.904-51.104h-245.664l16.608 53.696zM896 222.048c0-17.12-13.76-30.048-32-30.048h-64c-17.696 0-32-14.304-32-32v-33.92c-0.032-35.296-28.704-63.968-64-63.968s-63.968 28.672-64 63.936v33.952c0 17.696-14.304 32-32 32h-192c-17.664 0-32-14.304-32-32v-33.92c-0.032-35.296-28.736-63.968-64-63.968s-63.968 28.672-64 63.936v33.952c0 17.696-14.336 32-32 32h-64c-18.24 0-32 12.928-32 30.048v195.232c0 17.568 14.656 31.84 32.672 31.84 8.608 0 16.832 3.456 22.848 9.6s9.312 14.464 9.152 23.040l-0.608 28.32 30.752 153.408c11.2 26.624 40.96 40.512 65.184 40.512h448c21.472 0 53.28-20.736 65.536-42.080l30.464-151.808v-28.8c0-17.664 14.304-32 32-32 17.664 0 32-14.368 32-32v-195.264z" />
<glyph unicode="&#xf61e;" d="M430.144 3.040c-22.72 0-44 8.96-59.872 25.248l-68.064 70.176c-12.288 12.672-12 32.832 0.608 45.184 14.272 13.92 22.24 32.544 22.464 52.48 0.224 19.904-7.328 38.688-21.248 52.928-27.904 28.576-77.056 29.152-105.504 1.312-6.080-5.952-15.328-9.056-22.784-9.12-8.512 0.128-16.64 3.584-22.56 9.728l-67.968 70.048c-15.52 15.808-24.032 36.928-23.808 59.296 0.256 22.4 9.216 43.328 25.248 59.008l443.456 434.528c32.192 31.328 87.168 30.624 118.4-1.312l68.128-70.208c12.288-12.672 12-32.864-0.64-45.184-14.24-13.952-22.24-32.608-22.464-52.544s7.328-38.72 21.216-52.992c27.872-28.48 77.056-29.12 105.6-1.248 6.080 5.952 14.688 8.384 22.784 9.12 8.512-0.128 16.64-3.616 22.528-9.728l67.936-70.112c15.488-15.712 24-36.768 23.808-59.104-0.192-22.4-9.12-43.392-25.12-59.072l-443.616-434.592c-15.808-15.392-36.576-23.84-58.528-23.84zM367.808 122.784l48.352-49.888c7.264-7.392 20.224-7.648 27.808-0.224l443.52 434.464c3.776 3.712 5.888 8.672 5.952 13.952 0.032 5.216-1.952 10.112-5.6 13.824l-48.352 49.92c-21.312-12.832-45.824-19.68-71.296-19.68-37.664 0-72.864 14.816-99.2 41.76-25.888 26.464-39.872 61.408-39.456 98.432 0.32 26.176 7.776 51.136 21.504 72.672l-48.384 49.856c-7.2 7.328-20.256 7.552-27.84 0.192l-443.424-434.496c-3.808-3.712-5.92-8.672-5.984-13.92-0.032-5.248 1.952-10.176 5.6-13.952l48.32-49.824c21.312 12.832 45.792 19.68 71.232 19.68 37.664 0 72.928-14.848 99.232-41.824 25.856-26.432 39.904-61.376 39.456-98.368-0.288-26.112-7.744-51.072-21.44-72.576zM354.208 376.768c-8.192 0-16.384 3.136-22.624 9.376-12.512 12.512-12.512 32.736 0 45.248l178.656 178.688c12.512 12.512 32.768 12.512 45.28 0 12.48-12.48 12.48-32.736 0-45.248l-178.656-178.688c-6.272-6.24-14.464-9.376-22.656-9.376zM449.824 281.184c-8.192 0-16.384 3.136-22.624 9.376-12.512 12.512-12.512 32.736 0 45.248l178.656 178.688c12.512 12.512 32.736 12.512 45.248 0 12.512-12.48 12.512-32.736 0-45.248l-178.656-178.688c-6.272-6.24-14.464-9.376-22.624-9.376z" />
<glyph unicode="&#xf61f;" d="M512 896c-247.040 0-448-200.96-448-448s200.96-448 448-448 448 200.96 448 448-200.96 448-448 448zM512 64.288c-211.584 0-383.712 172.16-383.712 383.712 0 211.584 172.128 383.712 383.712 383.712 211.552 0 383.712-172.128 383.712-383.712 0-211.552-172.16-383.712-383.712-383.712zM671.968 448h-159.968v223.936c0 17.76-14.24 32.128-32 32.128s-32-14.4-32-32.128v-255.936c0-17.76 14.272-32 32-32h191.968c17.76 0 32.128 14.24 32.128 32s-14.368 32-32.128 32z" />
<glyph unicode="&#xf620;" d="M512 896c-247.040 0-448-200.96-448-448s200.96-448 448-448 448 200.96 448 448-200.96 448-448 448zM671.264 384h-191.104c-17.664 0-32.16 14.464-32.16 32.16v254.752c0 17.664 14.336 32 32 32s32-14.336 32-32v-222.912h159.264c17.696 0 32-14.336 32-32 0-17.696-14.336-32-32-32z" />
<glyph unicode="&#xf621;" d="M890.336 629.088c-12.576 12.416-32.8 12.352-45.248-0.192l-327.84-330.848-332.416 329.44c-12.576 12.448-32.8 12.352-45.28-0.192-12.448-12.576-12.352-32.832 0.192-45.28l353.312-350.112c0.544-0.544 1.248-0.672 1.792-1.184 0.128-0.128 0.16-0.288 0.288-0.416 6.24-6.176 14.4-9.28 22.528-9.28 8.224 0 16.48 3.168 22.72 9.472l350.112 353.312c12.48 12.576 12.384 32.832-0.16 45.28z" />
<glyph unicode="&#xf622;" d="M61.139 649.608q0 26.581 18.914 44.984t45.495 18.402h64.409v-287.283h-64.409q-26.581 0-45.495 18.402t-18.914 44.984v160.511zM776.791 913.377q43.961 41.917 79.744 46.006t63.386-18.914 47.029-67.476 31.693-99.169 18.402-114.504 6.134-113.993-7.668-108.37-22.492-101.725-34.76-83.322-44.473-53.163-52.652-12.268-58.786 39.872q-29.648 34.76-80.255 57.763t-110.415 38.85-121.15 25.559-112.46 17.38-85.367 14.824-38.339 17.38v319.999q4.089 14.313 32.204 23.514t71.565 17.38 98.147 17.891 111.437 26.581 110.926 42.939 98.147 66.965zM408.742 286.67q5.112-12.268 12.268-26.581 6.134-13.291 16.358-30.671t24.537-37.827q17.38-24.537 35.271-51.629t27.093-49.073 5.623-36.294-29.137-14.313h-58.275q-20.447 0-37.827 7.668t-33.227 23.514-32.716 40.383-36.294 58.275q-23.514 38.85-32.716 67.987t-12.268 48.562q-4.089 22.492 0 38.85 8.179-1.022 19.425-4.089 9.201-2.045 22.492-5.112t30.671-6.134q17.38-4.089 31.182-7.668t25.048-7.668q12.268-4.089 22.492-8.179z" />
<glyph unicode="&#xf623;" d="M761.056 427.872c0.512 0.992 1.344 1.824 1.792 2.848 8.8 18.304 5.92 40.704-9.664 55.424l-353.248 334.112c-19.264 18.208-49.632 17.344-67.872-1.888-18.208-19.264-17.376-49.632 1.888-67.872l316.96-299.84-315.712-304.288c-19.072-18.4-19.648-48.768-1.248-67.872 9.408-9.792 21.984-14.688 34.56-14.688 12 0 24 4.48 33.312 13.44l350.048 337.376c0.672 0.672 0.928 1.6 1.6 2.304 0.512 0.48 1.056 0.832 1.568 1.344 2.72 2.848 4.16 6.336 6.016 9.6z" />
<glyph unicode="&#xf624;" d="M405.536 27.872c-8.8 0-17.568 3.584-23.904 10.688-83.232 93.216-217.856 94.112-220.64 94.112-0.096 0-0.096 0-0.192 0-17.568 0-31.904 14.176-32.032 31.744-0.128 17.664 14.016 32.064 31.648 32.256 6.656 0.352 165.664 0.192 268.96-115.488 11.776-13.184 10.624-33.408-2.56-45.184-6.080-5.44-13.696-8.128-21.28-8.128zM620.128 27.936c-7.776 0-15.584 2.816-21.76 8.544-12.96 12-13.76 32.256-1.728 45.216 106.976 115.52 262.752 115.392 268.896 115.136 17.696-0.192 31.872-14.656 31.68-32.32-0.192-17.568-14.464-31.68-32-31.68-0.096 0-0.16 0-0.256 0v0c-2.656 0-134.56-0.864-221.376-94.624-6.272-6.848-14.88-10.272-23.456-10.272zM563.712 190.688h-101.408c-3.232 0-6.368 0.48-9.344 1.408-108.256 13.888-200.256 76.704-259.552 177.44-68.832 116.992-84.608 268.576-39.2 377.216 4.896 11.68 16.224 19.392 28.896 19.648l9.632 0.096c60.96 0 117.888-11.52 169.696-34.304 37.44 68.448 80.192 120.384 127.328 154.688 2.496 2.176 5.344 4 8.512 5.344v0c9.888 4.288 21.376 3.36 30.432-2.528 1.568-1.024 3.040-2.176 4.384-3.456 47.264-34.688 88.832-85.856 126.464-155.744 52.832 23.872 111.072 35.968 173.632 35.968l9.792-0.096c12.672-0.256 24-7.968 28.896-19.648 45.408-108.672 29.664-260.256-39.232-377.248-59.296-100.672-151.264-163.52-259.488-177.44-3.040-0.832-6.176-1.344-9.44-1.344zM468 254.688h90.016c0.672 0.128 1.376 0.224 2.080 0.32 115.712 12.864 182.080 87.072 217.376 147.008 54.048 91.872 70.432 211.936 42.528 300.32-58.24-1.888-111.616-16.16-158.816-42.528-7.712-4.288-16.832-5.184-25.184-2.624-8.384 2.624-15.328 8.608-19.2 16.512-32.448 66.368-67.232 115.2-105.824 148.48-38.624-33.216-74.176-82.4-105.92-146.592-3.872-7.808-10.72-13.696-19.040-16.32-8.32-2.656-17.28-1.76-24.96 2.4-46.208 25.12-98.336 38.784-155.008 40.64-27.904-88.384-11.52-208.448 42.528-300.288 35.296-59.936 101.632-134.112 217.312-147.008 0.704-0.096 1.408-0.192 2.112-0.32zM512.768 0c-17.664 0-32 14.304-32 32v190.688c0 17.696 14.336 32 32 32s32-14.304 32-32v-190.688c-0.032-17.696-14.336-32-32-32z" />
<glyph unicode="&#xf625;" d="M928 416h-832c-17.664 0-32 14.336-32 32s14.336 32 32 32h832c17.696 0 32-14.336 32-32s-14.304-32-32-32zM832 32h-192c-17.696 0-32 14.304-32 32s14.304 32 32 32h192c17.664 0 32 14.336 32 32v160c0 17.696 14.304 32 32 32s32-14.304 32-32v-160c0-52.928-43.072-96-96-96zM352 32h-160c-52.928 0-96 43.072-96 96v160c0 17.696 14.336 32 32 32s32-14.304 32-32v-160c0-17.664 14.368-32 32-32h160c17.664 0 32-14.304 32-32s-14.336-32-32-32zM128 576c-17.664 0-32 14.336-32 32v160c0 52.928 43.072 96 96 96h160c17.664 0 32-14.336 32-32s-14.336-32-32-32h-160c-17.632 0-32-14.368-32-32v-160c0-17.664-14.336-32-32-32zM896 576c-17.696 0-32 14.336-32 32v160c0 17.632-14.336 32-32 32h-192c-17.696 0-32 14.336-32 32s14.304 32 32 32h192c52.928 0 96-43.072 96-96v-160c0-17.664-14.304-32-32-32z" />
<glyph unicode="&#xf626;" d="M764.507 830.898c-1.72-1.861-2.765-3.073-3.894-4.202-68.349-68.356-136.541-136.87-205.165-204.949-18.722-18.573-32.771-38.992-36.643-65.763-1.287-8.898-2.3-17.37 0.206-26.108 1.604-5.591 2.823-11.3 4.042-16.993 3.616-16.896 14.159-29.438 25.988-41.064 16.864-16.575 38.874-20.889 60.954-24.616 3.954-0.668 8.302 0.243 12.348 1.038 7.178 1.411 14.225 3.482 21.396 4.937 16.326 3.311 28.683 13.548 39.828 24.602 69.82 69.239 139.206 138.916 208.741 208.443 1.252 1.252 2.568 2.438 4.59 4.352 0-2.53 0-4.117 0-5.703 0-195.664 0.010-391.327-0.007-586.99-0.004-43.78-24.38-79.375-65.077-93.309-10.201-3.493-21.514-5.229-32.318-5.247-192.163-0.306-384.327-0.274-576.49-0.182-46.123 0.022-87.409 36.83-92.878 82.364-0.613 5.104-0.984 10.271-0.986 15.41-0.048 212.163 0.139 424.326-0.181 636.488-0.071 46.883 32.993 87.634 78.518 95.871 5.372 0.972 10.896 1.553 16.349 1.556 178.497 0.079 356.993 0.066 535.49 0.066 1.431-0.001 2.862-0.001 5.189-0.001zM480.93 282.102c-62.47 0-124.939 0.001-187.409-0.007-2.331 0-4.672 0.035-6.991-0.156-20.797-1.719-34.278-21.941-27.911-41.812 4.474-13.959 16.459-22.214 32.56-22.217 126.605-0.021 253.21-0.012 379.814-0.004 1.664 0 3.337 0.025 4.991 0.187 20.296 1.976 33.573 21.871 27.596 41.318-4.373 14.227-16.466 22.671-32.742 22.679-63.304 0.028-126.606 0.011-189.908 0.012zM385.001 409.898c16.165 0 32.33-0.002 48.496 0.001 15.832 0.003 31.668-0.229 47.494 0.073 22.69 0.436 37.424 21.644 30.098 42.911-4.542 13.185-16.671 21.2-32.349 21.207-62.494 0.025-124.988 0.012-187.482 0.003-1.665 0-3.347 0.029-4.993-0.178-13.218-1.66-22.761-8.451-27.28-21.061-7.736-21.585 7.613-42.78 31.025-42.91 31.663-0.174 63.327-0.043 94.991-0.046zM611.682 511.168c-11.812 0.68-21.945 6.518-27.51 18.731-5.28 11.588-3.731 22.729 4.085 32.858 1.521 1.971 3.246 3.801 5.009 5.564 104.157 104.173 208.326 208.333 312.501 312.489 12.799 12.796 27.284 15.496 41.124 7.731 16.677-9.354 21.094-32.248 9.046-47.075-1.678-2.063-3.483-4.037-5.364-5.919-104.029-104.065-208.089-208.099-312.078-312.202-7.118-7.126-15.060-11.996-26.813-12.177z" />
<glyph unicode="&#xf627;" d="M561.159 798.898c105.826 0 211.653 0.121 317.479-0.065 37.282-0.065 66.003-16.156 85.36-48.196 8.997-14.894 12.871-31.342 12.875-48.652 0.039-169.989 0.132-339.979-0.039-509.968-0.056-54.549-42.173-96.798-96.695-96.843-212.819-0.174-425.639-0.188-638.459 0.010-54.489 0.051-96.316 42.431-96.539 97.017-0.19 46.829-0.078 93.661 0.035 140.491 0.009 3.615-0.985 6.158-3.571 8.727-27.195 27.013-54.295 54.121-81.352 81.272-12.058 12.1-14.485 26.994-6.487 40.433 2.014 3.384 4.769 6.418 7.568 9.229 26.691 26.81 53.43 53.572 80.271 80.23 2.587 2.569 3.578 5.114 3.569 8.729-0.114 46.663-0.476 93.331 0.045 139.989 0.46 41.13 19.64 71.068 56.717 89.091 13.244 6.438 27.562 8.528 42.24 8.524 105.663-0.032 211.323-0.018 316.983-0.018zM433.070 462.878c0.106 26.201-21.668 48.086-47.948 48.192-26.201 0.106-48.086-21.668-48.192-47.948-0.106-26.201 21.667-48.086 47.948-48.192 26.201-0.107 48.086 21.668 48.192 47.948zM577.247 414.93c26.319 0.212 48.034 22.151 47.823 48.317-0.212 26.319-22.151 48.034-48.317 47.823-26.319-0.212-48.034-22.151-47.823-48.317 0.212-26.319 22.151-48.034 48.317-47.823zM768.961 414.93c26.225-0.035 48.074 21.778 48.109 48.031 0.035 26.225-21.778 48.074-48.031 48.109-26.225 0.035-48.074-21.778-48.109-48.031-0.035-26.225 21.778-48.074 48.031-48.109z" />
<glyph unicode="&#xf628;" d="M960.311 447.061c0-74.323 0.191-148.648-0.098-222.971-0.109-28.18-2.526-56.14-9.983-83.579-8.812-32.424-26.128-59.495-49.542-83.078-34.073-34.317-75.961-51.769-123.543-55.203-31.037-2.239-62.24-2.911-93.371-2.984-122.319-0.288-244.641-0.272-366.96 0.15-25.777 0.089-51.683 1.123-77.292 3.902-61.711 6.698-108.812 37.9-142.749 89.331-14.826 22.468-22.476 47.749-26.693 74.131-5.841 36.547-4.828 73.434-4.891 110.226-0.201 116.987-0.155 233.976 0.053 350.963 0.044 24.816 0.431 49.679 1.998 74.435 2.035 32.155 8.478 63.54 25.226 91.598 29.602 49.591 71.768 82.277 129.214 93.958 30.762 6.256 61.9 6.728 93.036 6.772 132.152 0.19 264.306 0.183 396.458 0.002 29.305-0.040 58.624-0.436 87.652-5.663 62.313-11.222 107.335-46.188 137.828-100.644 11.675-20.849 17.149-43.979 20.203-67.551 4.617-35.629 3.904-71.5 4.002-107.313 0.153-55.493 0.041-110.988 0.041-166.482-0.198 0-0.393 0-0.589 0zM479.488 446.899c0-21.567 0-42.593 0-63.798-2.406 0-4.4 0-6.396 0-28.996-0.001-57.992 0.092-86.988-0.035-19.853-0.086-34.042-14.766-33.165-33.959 0.78-17.081 14.799-30.088 32.954-30.17 29.495-0.134 58.991-0.038 88.487-0.039 1.754 0 3.509 0 5.518 0 0-2.726 0-4.71 0-6.694 0.001-29.163-0.098-58.326 0.040-87.487 0.085-17.889 13.015-31.906 29.814-32.779 19.3-1.003 34.202 13.058 34.306 32.781 0.154 29.494 0.042 58.991 0.043 88.486 0 1.771 0 3.543 0 5.693 3.249 0 5.884 0 8.52 0 29.162 0.002 58.325-0.144 87.487 0.054 21.031 0.143 35.582 17.563 32.114 37.943-2.591 15.229-15.915 26.111-32.505 26.172-29.995 0.11-59.991 0.033-89.987 0.034-1.765 0-3.53 0-5.33 0 0 21.574 0 42.482 0 63.797 2.422 0 4.557 0 6.692 0 29.662 0.002 59.325-0.141 88.987 0.053 21.041 0.138 35.598 17.533 32.146 37.916-2.58 15.234-15.9 26.138-32.48 26.2-29.995 0.112-59.991 0.033-89.987 0.034-1.769 0-3.537 0-5.083 0-1.861 9.472 0.245 16.334 6.994 23.246 36.67 37.555 72.742 75.693 108.997 113.653 1.72 1.801 3.332 3.732 4.799 5.745 12.823 17.594 3.855 43.417-17.14 49.094-13.421 3.629-24.482-0.675-33.85-10.539-31.668-33.353-63.408-66.638-95.079-99.988-1.468-1.545-2.529-3.475-4.352-6.024-2.21 2.696-3.26 4.227-4.55 5.516-33.366 33.329-66.752 66.636-100.151 99.932-1.767 1.762-3.594 3.479-5.519 5.064-15.229 12.555-38.109 8.393-47.918-8.686-7.955-13.85-5.639-28.575 6.618-40.868 37.651-37.763 75.356-75.472 112.999-113.243 1.342-1.347 3.095-3.074 3.203-4.72 0.389-5.913 0.152-11.866 0.152-18.182-5.228 0-9.863 0-14.499 0-26.663-0.003-53.328 0.21-79.988-0.070-25.801-0.271-40.946-26.925-27.772-48.705 6.502-10.75 16.559-15.442 28.985-15.434 30.826 0.021 61.65 0.007 92.884 0.007z" />
<glyph unicode="&#xf629;" d="M511.999 891.092c-244.712 0-443.092-198.378-443.092-443.092s198.379-443.092 443.092-443.092c244.713 0 443.092 198.378 443.092 443.092s-198.378 443.092-443.092 443.092zM511.999 66.921c-210.463 0-381.079 170.615-381.079 381.078s170.615 381.079 381.079 381.079 381.079-170.615 381.079-381.079c0-210.463-170.615-381.078-381.079-381.078zM331.157 326.499c-6.975 2.516-14.149 2.707-21.506 0.581-7.366-2.135-12.987-7.655-16.856-16.565-10.852-22.087-24.412-43.392-40.687-63.935-8.527-9.681-12.787-17.819-12.787-24.412 0-6.585 3.487-13.559 10.462-20.925 6.975-7.356 15.012-11.044 24.121-11.044 9.1 0 16.565 1.744 22.378 5.231 3.098 1.553 6.775 4.459 11.044 8.72 4.259 4.268 8.618 9.4 13.078 15.403 4.45 6.012 8.91 12.597 13.368 19.762 4.45 7.175 8.428 14.631 11.915 22.378 6.975 15.502 10.462 26.157 10.462 31.968 0.382 7.356-1.943 14.041-6.975 20.053-5.040 6.001-11.044 10.261-18.018 12.785zM263.734 341.901l254.001 10.463c-6.975-8.137-10.463-14.922-10.463-20.343 0-5.432 4.259-12.787 12.787-22.087 8.91-8.919 17.438-18.601 25.574-29.062 8.138-10.844 15.786-16.275 22.959-16.275 7.167 0 15.014 2.907 23.54 8.72 8.91 5.812 13.368 13.178 13.368 22.087 0 2.324-0.1 4.359-0.29 6.103-0.2 1.744-0.971 3.868-2.324 6.394-1.363 2.515-3.397 5.522-6.104 9.009-2.716 3.487-6.394 8.137-11.045 13.95-4.649 5.422-8.719 10.172-12.206 14.24-3.487 4.070-6.394 7.066-8.719 9.010 94.542 4.65 146.272 6.974 155.191 6.974 5.423 0 9.489-1.362 12.206-4.069 10.845-8.528 19.563-12.787 26.157-12.787 6.584 0 13.559 3.097 20.924 9.3 7.746 6.585 11.626 13.169 11.626 19.762 0 7.356-3.688 15.303-11.045 23.83-7.365 8.519-20.344 20.344-38.944 35.456-1.553 1.544-2.324 2.906-2.324 4.069s0.963 2.708 2.906 4.65c9.3 8.519 13.951 23.050 13.951 43.594v79.63c0 19.762-4.269 33.803-12.787 42.14-8.528 8.328-23.45 12.497-44.755 12.497h-138.917c-5.812 0-8.719 2.906-8.719 8.719s2.906 8.719 8.719 8.719h192.39c10.845-0.781 19.081 2.225 24.704 9.009 5.612 6.775 8.428 14.432 8.428 22.959 0 8.519-2.816 16.175-8.428 22.959-5.622 6.775-13.859 9.782-24.704 9.009h-192.39c-5.812 0-8.719 2.325-8.719 6.975 0 12.006-3.198 21.406-9.591 28.19-6.394 6.775-15.022 10.172-25.864 10.172-10.463 0-18.799-3.297-24.993-9.881-6.203-6.593-9.3-16.084-9.3-28.481 0-4.65-2.906-6.975-8.719-6.975h-191.227c-11.243 0.772-19.571-2.235-24.993-9.009-5.431-6.783-8.137-14.44-8.137-22.959 0-8.527 2.707-16.184 8.137-22.959 5.421-6.783 13.75-9.79 24.993-9.009h191.227c5.812 0 8.719-2.906 8.719-8.719s-2.906-8.719-8.719-8.719h-137.172c-21.315 0-36.037-4.069-44.174-12.206s-12.206-22.287-12.206-42.43v-79.63c0-20.153 4.16-34.393 12.497-42.721 8.329-8.337 22.959-12.497 43.883-12.497h137.172c3.869 0 6.293-0.49 7.265-1.453 0.963-0.972 1.453-3.778 1.453-8.428 0-4.268-0.49-7.174-1.453-8.719-0.972-1.553-3.396-2.325-7.265-2.325l-204.596-2.906c-20.543-0.782-30.806-12.597-30.806-35.456 0-8.527 2.416-15.403 7.265-20.634 4.841-5.232 11.525-7.849 20.054-7.849zM550.284 558.122c0 3.869 2.906 5.812 8.719 5.812h111.599c10.071 0 15.112-3.878 15.112-11.625 0-3.106-2.135-4.65-6.394-4.65h-120.318c-5.812 0-8.719 2.325-8.719 6.975v3.487zM550.284 496.511c0 4.65 2.906 6.975 8.719 6.975h117.992c2.707 0 4.741-0.781 6.102-2.325 1.353-1.553 2.225-3.297 2.617-5.231 0.382-1.943 0.19-3.778-0.581-5.522-0.782-1.744-1.743-3.006-2.906-3.778-2.324-1.162-6.203-1.744-11.624-1.744h-111.601c-5.812 0-8.719 1.934-8.719 5.812v5.812zM552.027 428.215c1.163 0.962 3.487 1.453 6.975 1.453h97.066c2.326 0 3.869-0.391 4.651-1.162 0.772-0.782 2.324-3.107 4.649-6.975 2.707-3.106 4.070-5.621 4.070-7.556 0-1.162-1.163-1.943-3.487-2.325-0.782 0-4.559 0-11.334 0-6.783 0-16.375-0.2-28.77-0.58-12.406-0.391-24.121-0.581-35.166-0.581-11.042 0-21.605 0-31.676 0-3.487 0-5.812 0.581-6.975 1.744-1.161 1.162-1.743 3.868-1.743 8.137-0.001 4.258 0.58 6.874 1.742 7.846zM363.125 563.934h108.691c5.812 0 8.719-1.943 8.719-5.812v-3.487c0-4.65-2.906-6.975-8.719-6.975h-115.085c-5.812 0-8.719 1.544-8.719 4.65 0 7.746 5.032 11.625 15.112 11.625zM471.816 484.886h-109.272c-5.432 0-9.3 0.672-11.625 2.034-2.325 1.353-3.487 4.359-3.487 9.009 0 5.032 2.906 7.556 8.719 7.556h115.666c5.812 0 8.719-2.325 8.719-6.975v-5.812c-0.001-3.878-2.907-5.812-8.72-5.812zM653.163 310.514c-14.73 0-23.248-7.947-25.574-23.831-1.942-11.234-6.012-18.79-12.206-22.667-6.975-4.65-21.705-7.166-44.174-7.556-23.251-1.163-45.338-1.744-66.261-1.744-20.925 0-33.52 1.362-37.78 4.069-4.65 2.715-6.975 9.499-6.975 20.343v27.899c0.772 11.625-2.524 20.434-9.881 26.447-7.365 6.003-15.693 9.009-24.993 9.009s-17.637-3.006-24.993-9.009c-7.366-6.013-10.662-14.822-9.881-26.447v-59.868c0-16.274 4.069-28.19 12.206-35.746s19.952-12.297 35.456-14.24c15.494-2.324 45.527-3.487 90.093-3.487 22.469 0 41.268 0.291 56.38 0.873 15.112 0.58 26.927 1.262 35.456 2.033 25.183 0.782 43.201 8.819 54.055 24.121 10.843 15.313 16.465 35.946 16.855 61.902 0 18.6-12.596 27.898-37.78 27.898zM778.71 293.077c-6.593 10.463-12.596 19.563-18.017 27.318-5.431 7.746-10.271 14.14-14.53 19.181-8.918 10.071-18.019 15.112-27.319 15.112-6.973 0-14.53-2.906-22.666-8.719-8.138-5.812-12.208-11.434-12.208-16.856 0-5.041 1.163-9.981 3.487-14.822 2.326-4.849 6.975-12.888 13.951-24.121 6.584-10.844 13.949-23.25 22.087-37.199 4.259-6.585 7.647-12.107 10.171-16.565 2.516-4.45 4.551-7.647 6.104-9.59 2.707-3.868 6.194-6.974 10.461-9.3 4.261-2.324 9.202-3.487 14.822-3.487 5.612 0 12.687 3.297 21.215 9.881 8.518 6.203 12.787 14.149 12.787 23.831-0.001 8.918-6.783 24.031-20.344 45.337z" />
<glyph unicode="&#xf62a;" d="M382.72 0c-0.928 0-1.856 0.032-2.816 0.128-160.928 14.016-282.272 90.56-282.272 178.016 0 84.768 127.232 140.032 254.912 158.912v12.544c-93.28 70.016-106.624 191.648-106.624 313.44 0 145.888 85.856 232.96 229.664 232.96 142.144 0 220.448-82.72 220.448-232.96 0-69.76-23.84-157.888-62.208-230.016-8.288-15.584-27.648-21.536-43.296-13.216-15.584 8.288-21.536 27.68-13.216 43.296 33.248 62.496 54.72 140.96 54.72 199.968 0 113.696-51.168 168.96-156.448 168.96-109.92 0-165.664-56.832-165.664-168.96 0-109.728 11.136-218.336 91.808-269.696 9.216-5.888 14.816-16.064 14.816-27.008v-57.472c0-16.384-12.352-30.080-28.64-31.808-138.112-14.592-226.272-68.32-226.272-98.912 0-39.552 85.152-102.176 223.84-114.272 17.6-1.536 30.624-17.056 29.088-34.656-1.44-16.672-15.424-29.248-31.84-29.248zM768.768 191.936h-128c-17.696 0-32 14.304-32 32s14.304 32 32 32h128c17.696 0 32-14.304 32-32s-14.304-32-32-32zM704.768 92.736h-64c-17.696 0-32 14.304-32 32s14.304 32 32 32h64c17.696 0 32-14.304 32-32s-14.304-32-32-32zM832.672-3.264h-255.744c-52.928 0-96 43.072-96 96v163.2c0 52.928 43.072 96 96 96h255.744c52.928 0 96-43.072 96-96v-163.2c0-52.928-43.072-96-96-96zM576.896 287.936c-17.664 0-32-14.336-32-32v-163.2c0-17.664 14.336-32 32-32h255.744c17.664 0 32 14.336 32 32v163.2c0 17.664-14.336 32-32 32h-255.744z" />
<glyph unicode="&#xf62b;" d="M190.56-0.512c-17.664 0-32 14.304-32 32 0 69.504 82.080 119.808 226.464 139.84v9.696c-97.952 74.976-97.952 214.048-97.952 298.688 0 139.648 82.176 223.040 219.84 223.040h7.328c137.696 0 219.872-83.36 219.872-223.040 0-10.24-0.096-20.704-0.384-31.264-0.512-17.696-14.912-31.648-32.864-31.104-17.664 0.48-31.584 15.2-31.136 32.864 0.288 9.952 0.384 19.808 0.384 29.504 0 105.536-52.448 159.040-155.872 159.040h-7.328c-103.392 0-155.84-53.504-155.84-159.040 0-102.24 6.432-206.176 83.168-255.040 9.216-5.888 14.816-16.064 14.816-27.008v-54.688c0-16.384-12.352-30.080-28.64-31.808-128.512-13.568-197.824-51.2-197.824-79.68-0.032-17.664-14.368-32-32.032-32zM833.76-0.512c-17.696 0-32 14.304-32 32 0 28.512-69.312 66.112-197.792 79.68-16.288 1.728-28.672 15.424-28.672 31.808v54.688c0 17.696 14.304 32 32 32s32-14.304 32-32v-26.336c144.384-20.032 226.432-70.336 226.432-139.84 0.032-17.664-14.304-32-31.968-32zM612.256 286.528c-44 0-76.96 4.48-77.792 4.704-15.776 4.864-25.248 20.896-21.92 37.088 3.328 16.128 18.4 26.912 34.848 25.312 79.776-8.736 201.664-1.216 223.008 43.2 7.616 15.904 26.688 22.72 42.688 15.008 15.936-7.648 22.656-26.752 15.008-42.688-33.376-69.568-140.672-82.624-215.84-82.624zM896 320c-17.696 0-32 14.304-32 32v111.84l-42.752 15.232c-12.736 4.544-21.248 16.608-21.248 30.144 0 160.576-129.184 291.2-288 291.2-158.784 0-288-130.656-288-291.2 0-10.336-4.992-20.032-13.408-26.048l-18.592-13.248v-117.92c0-17.696-14.336-32-32-32s-32 14.304-32 32v134.4c0 10.336 4.992 20.032 13.408 26.048l18.976 13.504c8.704 188.128 163.072 338.464 351.616 338.464 186.496 0 339.584-147.104 351.296-332.384l43.456-15.488c12.736-4.544 21.248-16.608 21.248-30.144v-134.4c0-17.696-14.304-32-32-32z" />
<glyph unicode="&#xf62c;" d="M858.656 96h-693.312c-55.872 0-101.344 45.44-101.344 101.312v501.376c0 55.872 45.472 101.312 101.344 101.312h693.312c55.872 0 101.344-45.44 101.344-101.312v-501.376c0-55.872-45.472-101.312-101.344-101.312zM165.344 736c-20.608 0-37.344-16.736-37.344-37.312v-501.376c0-20.576 16.736-37.312 37.344-37.312h693.312c20.608 0 37.344 16.736 37.344 37.312v501.376c0 20.576-16.736 37.312-37.344 37.312h-693.312zM800 544h-576c-17.664 0-32 14.336-32 32s14.336 32 32 32h576c17.696 0 32-14.336 32-32s-14.304-32-32-32zM320 224h-96c-17.664 0-32 14.304-32 32s14.336 32 32 32h96c17.664 0 32-14.304 32-32s-14.336-32-32-32z" />
<glyph unicode="&#xf62d;" d="M935.898 94.898c9.515 0 18.325 0.017 27.135-0.003 19.051-0.042 31.826-12.679 31.865-31.498 0.040-19.424-12.451-32.283-31.565-32.284-300.163-0.017-600.327-0.016-900.49-0.002-19.207 0.001-31.769 12.779-31.742 32.112 0.027 18.912 12.734 31.629 31.694 31.669 13.826 0.029 27.652 0.006 42.306 0.006 0 2.44 0 4.686 0 6.931 0 220.665 0 441.329 0 661.993 0 33.768 13.073 61.105 40.436 81.163 16.653 12.207 35.625 17.867 56.169 17.877 142.166 0.066 284.331 0.18 426.495-0.038 54.499-0.084 96.303-42.357 96.676-96.912 0.123-17.999 0.021-35.999 0.021-53.999 0-1.803 0-3.604 0-6.015 2.346 0 4.284 0 6.223 0 35.833 0 71.666 0.101 107.499-0.026 42.577-0.151 77.747-25.007 92.038-64.981 3.964-11.086 5.26-22.644 5.258-34.396-0.025-168.165-0.018-336.33-0.018-504.494 0-2.143 0-4.285 0-7.103zM661.102 95.069c0 2.163 0 3.805 0 5.446 0 221.134 0.003 442.268-0.006 663.402-0.001 21.906-13.256 35.176-35.145 35.178-140.646 0.012-281.292 0.012-421.938-0.001-21.87-0.002-35.108-13.283-35.109-35.212-0.008-221.135-0.005-442.269-0.005-663.403 0-1.758 0-3.516 0-5.41 164.316 0 327.911 0 492.203 0zM872.102 95.090c0 2.020 0 3.501 0 4.982 0 169.137 0.008 338.273-0.011 507.41-0.003 21.211-13.441 34.589-34.702 34.609-35.66 0.034-71.321 0.010-106.981 0.010-1.751 0-3.502 0-5.144 0 0-182.813 0-364.854 0-547.012 48.97 0.001 97.576 0.001 146.838 0.001zM301.884 638.103c-12.491 0-24.983-0.042-37.474 0.010-18.574 0.077-31.243 12.85-31.303 31.512-0.028 8.493-0.052 16.988 0.005 25.481 0.12 17.703 12.934 30.701 30.534 30.768 25.648 0.096 51.298 0.107 76.947-0.006 17.089-0.076 30.064-13.005 30.282-29.997 0.118-9.158 0.109-18.321 0.002-27.48-0.202-17.332-13.090-30.128-30.519-30.267-12.824-0.103-25.65-0.020-38.474-0.021zM527.512 638.104c-12.491-0.001-24.983-0.060-37.474 0.013-17.995 0.105-30.817 12.929-30.927 30.88-0.054 8.827-0.077 17.655 0.006 26.481 0.163 17.33 13.070 30.321 30.4 30.393 25.648 0.104 51.298 0.104 76.946 0 17.345-0.069 30.253-13.040 30.418-30.371 0.085-8.993 0.093-17.988-0.003-26.981-0.185-17.381-13.016-30.24-30.394-30.392-12.989-0.113-25.981-0.023-38.972-0.023zM302.004 453.103c-12.658 0-25.316-0.060-37.974 0.015-17.992 0.104-30.81 12.932-30.918 30.887-0.053 8.827-0.077 17.655 0.006 26.481 0.164 17.325 13.077 30.313 30.408 30.385 25.648 0.104 51.298 0.104 76.947 0 17.341-0.070 30.246-13.045 30.41-30.379 0.085-8.993 0.093-17.988-0.003-26.981-0.186-17.377-13.021-30.166-30.401-30.405-0.333-0.005-0.667-0.002-1-0.002-12.493-0.002-24.984-0.002-37.475-0.001zM527.494 453.103c-12.491 0-24.983-0.060-37.474 0.015-17.986 0.106-30.802 12.938-30.909 30.896-0.053 8.827-0.078 17.655 0.006 26.481 0.165 17.319 13.084 30.305 30.417 30.375 25.648 0.104 51.298 0.104 76.947 0 17.336-0.071 30.237-13.052 30.399-30.389 0.084-8.993 0.094-17.988-0.003-26.981-0.188-17.372-13.028-30.158-30.411-30.396-0.333-0.005-0.666-0.002-0.999-0.002-12.656 0-25.315 0-37.973 0.001zM301.509 269.104c-12.491-0.001-24.983-0.060-37.474 0.013-17.994 0.105-30.814 12.93-30.923 30.883-0.054 8.827-0.077 17.655 0.006 26.481 0.163 17.328 13.073 30.318 30.403 30.39 25.649 0.104 51.298 0.104 76.947 0 17.343-0.070 30.25-13.042 30.414-30.374 0.085-8.993 0.093-17.989-0.003-26.981-0.185-17.38-13.018-30.237-30.397-30.389-12.99-0.113-25.982-0.023-38.973-0.023zM527.984 269.104c-12.657-0.001-25.316-0.062-37.974 0.014-17.98 0.106-30.793 12.944-30.899 30.906-0.053 8.826-0.078 17.654 0.007 26.481 0.166 17.316 13.088 30.296 30.426 30.365 25.649 0.104 51.298 0.105 76.947-0.001 17.333-0.071 30.229-13.057 30.391-30.397 0.084-8.993 0.095-17.988-0.003-26.981-0.188-17.367-13.034-30.215-30.421-30.365-12.823-0.11-25.648-0.022-38.474-0.022z" />
<glyph unicode="&#xf62e;" d="M215.142 865.593c28.507-0.619 56.388-4.216 83.591-12.956 30.086-9.667 58.84-22.283 85.807-38.691 19.557-11.9 38.922-24.194 57.684-37.299 13.172-9.2 25.281-19.944 37.691-30.209 13.432-11.11 27.518-21.206 42.892-29.479 25.577-13.762 52.991-22.271 81.3-27.925 17.805-3.557 35.747-6.587 53.745-8.96 13.551-1.787 27.278-2.372 40.948-3.101 16.873-0.898 33.777-1.22 50.651-2.113 13.834-0.732 27.698-1.479 41.442-3.114 7.594-0.904 12.822-6.964 17.152-12.656 8.809-11.581 17.7-23.265 24.929-35.842 9.946-17.304 19.344-35.063 27.22-53.382 9.737-22.647 18.706-45.744 26.117-69.244 8.585-27.224 15.765-54.942 22.3-82.742 3.999-17.013 6.010-34.532 8.235-51.911 2.152-16.802 3.747-33.692 5.006-50.587 1.106-14.852 1.825-29.762 1.876-44.648 0.023-6.77-1.81-13.579-3.106-20.312-1.479-7.676-6.986-11.671-13.622-15.034-23.185-11.751-47.822-14.931-73.332-12.845-28.848 2.358-55.982 10.969-82.484 22.368-20.276 8.723-41.168 16.002-61.668 24.219-11.388 4.564-22.523 9.756-33.787 14.631-31.527 13.644-61.605 30.708-94.821 40.364-21.94 6.378-43.769 13.262-65.966 18.59-12.046 2.892-24.744 3.166-37.175 4.326-20.538 1.917-40.428-1.729-60.328-6.578-21.402-5.215-40.956-13.875-57.667-28.182-9.044-7.744-12.762-18.437-9.784-30.021 4.632-18.019 10.23-35.795 15.653-53.602 11.089-36.411 22.317-72.779 33.523-109.154 3.561-11.558 7.567-22.988 10.779-34.639 5.301-19.229-5.642-39.668-23.895-45.041-9.053-2.665-17.7-0.587-25.332 5.88-9.38 7.947-12.841 18.861-16.361 29.812-4.249 13.218-8.163 26.542-12.27 39.805-11.644 37.607-23.28 75.216-34.981 112.805-8.838 28.393-17.812 56.742-26.653 85.133-7.529 24.178-14.918 48.398-22.435 72.58-9.456 30.416-19.011 60.802-28.464 91.219-8.969 28.862-17.828 57.758-26.793 86.62-9.353 30.109-18.79 60.192-28.162 90.295-9.325 29.949-18.63 59.903-27.914 89.864-4.013 12.951-8.232 25.848-11.845 38.911-3.865 13.976-0.407 26.417 8.919 37.495 8.989 10.678 18.718 20.719 30.882 27.477 10.787 5.992 22.178 11.756 34.028 14.731 11.684 2.934 24.279 2.242 36.475 3.142zM873.52 366.121c-0.479 6.765-0.788 13.546-1.472 20.29-1.227 12.095-1.753 24.36-4.235 36.206-4.586 21.879-9.716 43.692-15.822 65.19-8.164 28.74-19.629 56.245-34.453 82.273-12.423 21.813-26.028 42.825-44.938 59.633-7.038 6.256-14.841 13.103-23.5 15.771-16.308 5.024-33.428 7.575-50.329 10.453-11.809 2.011-23.837 2.694-35.728 4.265-13.484 1.78-26.941 3.784-40.381 5.881-15.205 2.372-30.465 4.521-45.539 7.569-14.553 2.943-29 6.54-43.311 10.513-18.352 5.094-36.487 11.434-52.589 21.563-31.617 19.89-63.092 39.923-96.133 57.451-24.657 13.080-49.808 24.947-76.075 34.33-23.3 8.322-47.118 14.902-71.799 17.512-9.695 1.025-19.605 1.589-29.275 0.736-6.898-0.607-13.977-2.146-20.179-6.588-8.728-6.25-14.797-22.785-11.999-31.926 4.59-14.991 8.652-30.144 13.254-45.132 11.553-37.631 23.25-75.219 34.956-112.803 5.49-17.626 11.212-35.179 16.693-52.808 11.396-36.653 22.723-73.329 34.033-110.010 4.187-13.58 7.982-27.288 12.443-40.776 3.998-12.086 6.115-25.609 19.020-32.326 6.268-3.263 13.053-5.648 20.436-4.466 8.361 1.339 15.554 5.065 22.825 9.449 11.127 6.709 23.517 10.69 36.681 11.552 5.604 0.367 11.271 1.311 16.81 0.835 14.89-1.276 29.848-2.479 44.548-5.036 13.146-2.286 26.384-5.261 38.865-9.87 18.239-6.736 35.864-15.147 53.704-22.951 22.346-9.773 44.45-20.128 67.009-29.381 36.595-15.009 73.659-28.781 112.175-38.214 25.815-6.321 51.679-12.612 78.578-10.306 18.451 1.582 36.434 5.463 51.141 17.601 8.658 7.146 15.912 15.85 19.114 27.044 3.401 11.893 6.485 23.867 5.472 36.476z" />
<glyph unicode="&#xf62f;" d="M507.365 895.008c103.244-0.922 192.354-24.045 273.387-75.081 68.441-43.105 121.769-99.994 154.79-174.562 22.973-51.872 32.092-106.277 27.046-162.807-5.927-66.399-30.274-125.761-70.426-178.682-45.85-60.432-104.756-104.228-173.883-134.631-43.383-19.080-88.646-31.677-135.733-37.198-18.171-2.131-36.491-3.034-54.758-4.281-3.604-0.246-6.033-1.347-8.315-4.306-17.743-23.004-40.47-40.447-64.364-56.407-37.467-25.026-77.208-45.97-118.273-64.418-18.035-8.102-37.259-0.886-44.121 16.426-3.123 7.876-3.282 15.729 0.252 23.731 11.634 26.342 23.061 52.828 29.415 81.027 2.39 10.605 2.888 21.684 3.662 32.588 0.406 5.722-2.369 9.491-8.3 11.997-72.158 30.474-133.53 75.229-180.826 138.227-31.539 42.011-53.079 88.693-63.458 140.259-6.509 32.339-8.063 64.985-4.615 97.895 7.555 72.119 36.259 135.039 82.702 190.101 49.998 59.277 112.601 100.648 184.81 127.918 40.689 15.367 82.736 25.19 126.065 29.148 17.572 1.605 35.217 2.41 44.943 3.056zM513.035 607.102c-37.165 0-74.33 0.002-111.495-0.003-5.833 0-11.675 0.169-17.497-0.084-22.226-0.964-36.58-22.485-29.018-43.354 4.673-12.896 16.753-20.746 32.207-20.751 83.83-0.021 167.66-0.011 251.49-0.004 1.665 0 3.338 0.018 4.994 0.166 20.058 1.795 33.647 21.471 28.104 40.658-4.146 14.352-16.387 23.324-32.291 23.349-42.164 0.064-84.329 0.021-126.494 0.023zM482.501 414.898c13.167 0 26.333-0.001 39.499 0.001 19.333 0.002 38.669-0.209 57.998 0.064 22.73 0.322 37.676 21.499 30.418 42.668-4.589 13.387-16.552 21.448-32.15 21.456-63.665 0.031-127.33 0.015-190.995 0.006-1.666 0-3.347 0.029-4.993-0.177-13.22-1.654-22.767-8.444-27.291-21.052-7.743-21.585 7.605-42.791 31.017-42.919 32.165-0.175 64.331-0.044 96.497-0.047z" />
<glyph unicode="&#xf630;" d="M384 32h-192c-52.928 0-96 43.072-96 96v192c0 52.928 43.072 96 96 96h192c52.928 0 96-43.072 96-96v-192c0-52.928-43.072-96-96-96zM192 352c-17.632 0-32-14.336-32-32v-192c0-17.664 14.368-32 32-32h192c17.632 0 32 14.336 32 32v192c0 17.664-14.368 32-32 32h-192zM736 64c-17.696 0-32 14.304-32 32v64c0 17.696 14.304 32 32 32s32-14.304 32-32v-64c0-17.696-14.304-32-32-32zM864 64c-17.696 0-32 14.304-32 32v96c0 17.696 14.304 32 32 32s32-14.304 32-32v-96c0-17.696-14.304-32-32-32zM864 288c-17.696 0-32 14.304-32 32v64c0 17.696 14.304 32 32 32s32-14.304 32-32v-64c0-17.696-14.304-32-32-32zM736 224c-17.696 0-32 14.304-32 32v128c0 17.696 14.304 32 32 32s32-14.304 32-32v-128c0-17.696-14.304-32-32-32zM608 64c-17.696 0-32 14.304-32 32v128c0 17.696 14.304 32 32 32s32-14.304 32-32v-128c0-17.696-14.304-32-32-32zM608 320c-17.696 0-32 14.304-32 32v32c0 17.696 14.304 32 32 32s32-14.304 32-32v-32c0-17.696-14.304-32-32-32zM320 160h-64c-17.664 0-32 14.304-32 32v64c0 17.696 14.336 32 32 32h64c17.664 0 32-14.304 32-32v-64c0-17.696-14.336-32-32-32zM384 480h-192c-52.928 0-96 43.072-96 96v192c0 52.928 43.072 96 96 96h192c52.928 0 96-43.072 96-96v-192c0-52.928-43.072-96-96-96zM192 800c-17.632 0-32-14.368-32-32v-192c0-17.632 14.368-32 32-32h192c17.632 0 32 14.368 32 32v192c0 17.632-14.368 32-32 32h-192zM320 608h-64c-17.664 0-32 14.336-32 32v64c0 17.664 14.336 32 32 32h64c17.664 0 32-14.336 32-32v-64c0-17.664-14.336-32-32-32zM832 480h-192c-52.928 0-96 43.072-96 96v192c0 52.928 43.072 96 96 96h192c52.928 0 96-43.072 96-96v-192c0-52.928-43.072-96-96-96zM640 800c-17.664 0-32-14.368-32-32v-192c0-17.632 14.336-32 32-32h192c17.664 0 32 14.368 32 32v192c0 17.632-14.336 32-32 32h-192zM768 608h-64c-17.696 0-32 14.336-32 32v64c0 17.664 14.304 32 32 32h64c17.696 0 32-14.336 32-32v-64c0-17.664-14.304-32-32-32z" />
<glyph unicode="&#xf631;" d="M253.869 418.169c0 19.593 0 38.856 0 58.558 172.424 0 344.766 0 517.357 0 0-19.6 0-39.007 0-58.558-172.573 0-344.802 0-517.357 0z" />
<glyph unicode="&#xf632;" d="M947.934 704.361c16.063 0 29.061 12.998 29.061 29.060v153.563c0 16.063-12.998 29.061-29.061 29.061h-153.599c-16.035 0-29.060-12.998-29.060-29.061v-47.734h-94.338c-2.937 0.451-5.928 0.451-8.864 0h-403.343v47.734c0 16.063-13.027 29.061-29.062 29.061h-153.598c-16.063 0-29.062-12.998-29.062-29.061v-153.563c0-16.063 12.999-29.060 29.062-29.060h47.737v-506.582h-47.737c-16.063 0-29.062-12.997-29.062-29.060v-153.563c0-16.063 12.999-29.060 29.062-29.060h153.598c16.035 0 29.062 12.997 29.062 29.060v47.735h506.545v-47.735c0-16.063 13.026-29.060 29.060-29.060h153.599c16.063 0 29.061 12.997 29.061 29.060v153.562c0 16.063-12.998 29.060-29.061 29.060h-47.737v407.639c0.050 0.984 0.050 1.971 0 2.955v95.988h47.738zM823.397 857.923h95.473v-95.442h-95.473v95.442zM181.929 500.079c1.708 1.102 3.329 2.395 4.825 3.891l277.169 277.158h132.079l-414.073-414.057v133.008zM105.13 857.923h95.473v-46.628c-0.014-0.367-0.028-0.735-0.028-1.106s0.014-0.739 0.028-1.106v-46.601h-95.473v95.442zM229.666 704.361c16.035 0 29.062 12.998 29.062 29.060v47.708h123.003l-199.803-199.794v123.027h47.737zM181.929 284.884l496.266 496.244h87.080v-35.607l-547.764-547.742h-35.581v87.105zM105.13 44.216v95.442h95.473v-46.6c-0.014-0.367-0.028-0.736-0.028-1.106s0.014-0.739 0.028-1.106v-46.628h-95.473zM842.071 406.251l-278.286-278.274c-2.109-2.109-3.823-4.461-5.148-6.966h-132.271l415.705 415.688v-130.449zM918.87 44.216h-95.473v95.442h95.473v-95.442zM794.334 197.779c-16.035 0-29.060-12.997-29.060-29.060v-47.707h-126.263l203.061 203.052v-126.284h-47.738zM842.071 618.888l-497.897-497.876h-85.446v35.795l547.576 547.553h35.767v-85.472z" />
<glyph unicode="&#xf633;" d="M512.832 894.893c246.378 0.37 447.41-200.454 448.061-447.599 0.648-246.294-201.328-448.364-447.974-448.187-246.765 0.179-447.717 201.147-447.812 447.85-0.094 246.573 200.802 447.564 447.725 447.936zM549.43 524.84c0 2.416 0 4.057 0 5.697 0 19.665-0.008 39.33 0.005 58.995 0.005 6.515 0.518 7.020 7.077 7.361 48.146 2.51 95.703 9.183 142.612 20.335 12.314 2.928 24.635 5.997 34.839 14.157 9.11 7.286 10.551 16.928 7.992 27.53-2.668 11.052-7.079 20.927-19.229 24.672-0.476 0.146-0.965 0.259-1.455 0.347-10.156 1.827-20.163 1.434-30.111-1.533-33.419-9.968-67.477-16.7-102.255-19.491-18.745-1.505-37.591-1.979-56.266-4.053-20.123-2.235-36.487-11.173-43.328-31.626-2.591-7.749-3.89-16.272-3.973-24.461-0.398-39.326-0.066-78.659-0.211-117.988-0.139-37.634-0.836-75.229-4.937-112.723-4.373-39.994-17.408-76.229-42.483-108.116-6.257-7.957-10.421-17.677-14.784-26.945-1.576-3.348-1.833-7.924-1.121-11.638 3.854-20.090 29.771-32.012 47.14-21.122 7.575 4.75 14.541 11.343 19.989 18.471 31.438 41.127 48.468 88.215 53.853 139.3 3.311 31.409 4.231 63.071 6.242 94.618 0.070 1.104 0.325 2.196 0.47 3.139 25.915 0 51.487 0 77.401 0 0-2.361 0-4.339 0-6.316 0-74.827-0.001-149.654 0.005-224.481 0.001-3.166-0.039-6.338 0.134-9.496 0.768-13.963 7.915-23.077 21.233-25.063 7.436-1.109 15.348-1.030 22.768 0.195 13.214 2.185 18.986 9.538 19.941 23.041 0.152 2.157 0.117 4.33 0.117 6.496 0.006 76.493 0.005 152.987 0.005 229.48 0 2.087 0 4.173 0 6.539 2.781 0 4.772 0 6.764 0 16.332 0 32.666-0.18 48.994 0.063 11.482 0.171 22.113 2.568 26.847 14.955 4.62 12.090 4.21 24.101-1.289 35.865-3.009 6.438-7.907 10.796-14.933 12.080-5.208 0.953-10.549 1.637-15.832 1.646-61.662 0.11-123.323 0.070-184.985 0.070-2.145 0-4.291 0-7.236 0zM339.888 370.92c0-32.050 0.090-63.708-0.065-95.365-0.038-7.663-4.391-10.406-11.701-8.066-3.638 1.164-7.193 2.633-10.883 3.588-16.112 4.169-25.045 0.212-32.995-14.421-11.406-20.991-5.178-40.665 16.126-49.986 16.701-7.308 34.282-10.725 52.518-10.041 23.565 0.884 38.455 11.693 44.744 33.536 2.592 9.005 4.101 18.632 4.188 27.993 0.421 44.996 0.277 89.998 0.066 134.996-0.023 4.964 1.552 7.417 5.786 10.041 18.233 11.298 36.235 22.984 54.042 34.945 5.955 3.999 11.244 9.353 12.38 16.922 3.108 20.695-11.973 38.527-33.553 37.281-7.688-0.444-14.422-3.622-20.687-7.99-5.637-3.93-11.412-7.662-17.563-11.772 0 24.353 0 47.625 0 71.409 2.065 0 3.854-0.006 5.642 0.001 10.666 0.040 21.344-0.245 31.993 0.204 14.986 0.632 23.724 6.873 25.819 19.517 1.281 7.73 1.287 15.97 0.162 23.733-1.728 11.937-8.558 17.84-20.651 19.661-4.418 0.666-8.942 0.811-13.421 0.867-9.779 0.123-19.561 0.038-29.826 0.038 0 2.369 0 4.16 0 5.951-0.001 20.166 0.098 40.333-0.032 60.499-0.111 17.319-8.626 27.668-25.072 29.239-20.835 1.99-37.872-5.061-37.113-32.21 0.54-19.318 0.104-38.664 0.104-57.997 0-1.751 0-3.502 0-5.482-2.611 0-4.437 0.001-6.263 0-11.667-0.006-23.338 0.197-34.998-0.068-15.691-0.358-24.894-6.862-27.113-20.556-1.249-7.706-1.010-15.982 0.318-23.699 1.981-11.512 8.755-17.438 20.379-18.666 9.238-0.977 18.603-0.81 27.914-1.006 6.44-0.136 12.886-0.026 19.1-0.026 0.348-0.893 0.565-1.189 0.565-1.486 0.042-33.332 0.107-66.663-0.041-99.994-0.006-1.407-1.714-3.516-3.122-4.093-8.152-3.339-16.461-6.291-24.7-9.421-8.682-3.299-17.639-6.049-25.948-10.117-12.874-6.304-21.433-20.994-16.311-37.701 5.37-17.516 16.945-25.817 34.939-21.393 11.714 2.879 23.064 7.223 35.273 11.135z" />
<glyph unicode="&#xf634;" d="M510.781 89.065c-24.557 1.314-50.697 2.004-76.7 4.264-45.222 3.933-89.837 11.361-132.474 27.806-21.147 8.156-41.069 18.555-57.745 34.216-22.967 21.569-33.853 47.866-28.976 79.468 2.829 18.334 13.443 32.525 27.044 44.543 22.482 19.865 49.23 31.931 77.207 41.631 30.925 10.723 62.782 17.579 95.101 22.378 3.211 0.477 4.247 1.513 4.153 4.72-0.215 7.326-0.192 14.668-0.008 21.996 0.076 3.020-0.767 5.24-2.944 7.39-17.313 17.097-31.299 36.605-42.139 58.399-11.96 24.046-19.649 49.462-23.979 75.871-6.274 38.263-8.927 76.824-6.26 115.529 2.617 37.978 12.168 74.065 33.319 106.328 24.316 37.090 58.438 60.53 101.771 68.857 64.153 12.329 145.456-12.857 182.209-91.167 13.259-28.249 20.164-58.071 21.665-89.083 2.012-41.549-0.474-82.875-8.844-123.688-8.527-41.585-25.508-79.207-53.801-111.284-3.349-3.796-7.121-7.223-10.396-11.076-1.249-1.47-2.269-3.639-2.33-5.522-0.256-7.858 0.035-15.734-0.18-23.596-0.082-3.009 1.165-3.855 3.831-4.24 29.845-4.318 59.258-10.606 87.981-19.87 25.983-8.379 51.029-18.818 73.338-34.9 13.551-9.77 25.429-21.178 32.803-36.498 10.030-20.838 8.582-41.973 0.306-62.782-9.513-23.919-27.958-39.833-49.568-52.461-25.438-14.864-53.168-23.653-81.698-30.237-30.959-7.144-62.322-11.617-94-13.661-22.338-1.444-44.722-2.196-68.686-3.331zM514.368 140.010c19.827 1.054 41.405 1.895 62.936 3.418 28.995 2.053 57.72 6.207 86.052 12.821 22.501 5.254 44.528 11.915 64.83 23.249 11.172 6.237 21.541 13.702 27.513 25.427 7.698 15.115 6.121 24.243-5.155 34.862-4.050 3.813-8.552 7.252-13.225 10.279-17.378 11.258-36.539 18.627-56.15 24.861-32.909 10.464-66.715 16.588-100.944 20.689-16.191 1.94-24.62 11.69-24.643 27.944-0.026 18.935 0.304 37.876-0.126 56.801-0.246 10.827 3.313 19.278 11.482 26.363 12.668 10.985 23.249 23.825 31.962 38.177 14.9 24.542 22.677 51.517 27.202 79.603 3.996 24.802 5.235 49.825 5.632 74.887 0.432 27.277-3.297 53.942-13.221 79.513-14.953 38.527-41.74 63.623-82.718 72.493-11.854 2.567-23.749 5.83-35.963 3.931-35.851-5.573-64.727-22.3-83.411-54.242-16.296-27.859-22.51-58.545-23.145-90.363-0.601-30.145 1.185-60.22 6.321-90.007 4.56-26.444 12.34-51.764 26.313-74.913 9.032-14.963 20.271-28.066 33.309-39.649 6.406-5.692 10.111-12.551 10.088-21.3-0.055-20.935 0.097-41.87-0.062-62.803-0.104-13.822-8.916-23.65-22.563-25.719-15.665-2.374-31.404-4.346-46.983-7.194-32.438-5.932-64.142-14.478-94.073-28.688-11.711-5.562-22.847-12.016-32.292-21.127-8.785-8.475-11.212-18.337-6.278-29.416 2.29-5.143 5.411-10.177 9.158-14.361 11.702-13.069 27.223-20.342 43.23-26.428 40.975-15.579 83.89-21.939 127.261-25.52 21.904-1.808 43.911-2.37 67.663-3.588z" />
</font>
</defs>
</svg>
